<svg width="43" height="76" viewBox="0 0 43 76" fill="none" xmlns="http://www.w3.org/2000/svg">
<path d="M37.5737 0H6.0231C4.68456 0.000629206 3.40097 0.636233 2.45438 1.76715C1.5078 2.89807 0.975644 4.43179 0.974854 6.03131V69.9723C0.976169 71.5716 1.50849 73.1049 2.45497 74.2357C3.40144 75.3665 4.68472 76.0023 6.0231 76.0036H37.5737C38.9123 76.002 40.1957 75.3662 41.1426 74.2356C42.0895 73.105 42.6225 71.5718 42.6249 69.9723V6.04081C42.6233 4.44097 42.0905 2.90725 41.1434 1.77644C40.1964 0.645618 38.9125 0.0101281 37.5737 0.0095" fill="#405866"/>
<path d="M34.3 4.60283H9.29729C8.23687 4.60283 7.21973 5.1054 6.46897 6.00031C5.71821 6.89522 5.29511 8.10942 5.29248 9.37658V60.0436C5.29459 61.311 5.71751 62.5256 6.46839 63.4206C7.21927 64.3157 8.23671 64.818 9.29729 64.8174H34.3C36.5062 64.8174 38.2949 62.668 38.2949 60.0436V9.37183C38.2949 6.73558 36.5012 4.59808 34.3 4.59808" fill="#85CFEA"/>
<path d="M21.1039 4.60278H9.30315C8.24273 4.60277 7.22559 5.10534 6.47483 6.00025C5.72407 6.89517 5.30097 8.10936 5.29834 9.37653V60.0436C5.30045 61.311 5.72337 62.5255 6.47425 63.4206C7.22513 64.3156 8.24257 64.818 9.30315 64.8173H34.3059C35.1138 64.8173 35.8601 64.5217 36.4882 64.0348C25.858 47.4882 20.1678 25.2451 21.1069 4.6004" fill="#28A6DE"/>
<path d="M25.0794 70.5257C25.0794 72.6834 23.6126 74.4421 21.803 74.4421C19.9934 74.4421 18.5266 72.6846 18.5266 70.5257C18.5266 68.3668 19.9934 66.6093 21.803 66.6093C23.6126 66.6093 25.0794 68.3668 25.0794 70.5257Z" fill="#CBD5DC"/>
<path d="M12.4537 70.5256C12.4604 70.9066 12.4034 71.2853 12.2861 71.6396C12.1688 71.9939 11.9934 72.3167 11.7704 72.589C11.5474 72.8614 11.2811 73.0778 10.9872 73.2256C10.6933 73.3734 10.3777 73.4497 10.0588 73.4499C9.73994 73.4502 9.42423 73.3744 9.13018 73.227C8.83613 73.0796 8.56964 72.8636 8.34633 72.5916C8.12302 72.3196 7.94736 71.9971 7.82966 71.6429C7.71196 71.2888 7.65458 70.9101 7.66087 70.5292C7.67324 69.7798 7.93096 69.066 8.37871 68.5411C8.82647 68.0162 9.42858 67.7219 10.0558 67.7214C10.6831 67.721 11.2855 68.0143 11.7338 68.5386C12.1821 69.0629 12.4406 69.7762 12.4537 70.5256Z" fill="#CBD5DC"/>
<path d="M31.1514 70.5257C31.1422 70.9086 31.1973 71.2898 31.3136 71.6468C31.4298 72.0038 31.6048 72.3293 31.8282 72.6041C32.0516 72.8788 32.3189 73.0972 32.6141 73.2464C32.9094 73.3955 33.2267 73.4724 33.5473 73.4724C33.8679 73.4724 34.1852 73.3955 34.4805 73.2464C34.7758 73.0972 35.043 72.8788 35.2664 72.6041C35.4898 72.3293 35.6648 72.0038 35.7811 71.6468C35.8973 71.2898 35.9525 70.9086 35.9432 70.5257C35.9432 69.7663 35.6908 69.0381 35.2415 68.5012C34.7922 67.9642 34.1828 67.6626 33.5473 67.6626C32.9119 67.6626 32.3025 67.9642 31.8531 68.5012C31.4038 69.0381 31.1514 69.7663 31.1514 70.5257Z" fill="#CBD5DC"/>
</svg>
