<svg width="64" height="76" viewBox="0 0 64 76" fill="none" xmlns="http://www.w3.org/2000/svg">
<path d="M31.8997 72.5563C45.7303 72.5563 56.9422 59.1052 56.9422 42.5125C56.9422 25.9198 45.7303 12.4688 31.8997 12.4688C18.0691 12.4688 6.85718 25.9198 6.85718 42.5125C6.85718 59.1052 18.0691 72.5563 31.8997 72.5563Z" fill="#428BC1"/>
<path d="M31.8994 65.9063C42.6565 65.9063 51.3769 55.4326 51.3769 42.5126C51.3769 29.5926 42.6565 19.1188 31.8994 19.1188C21.1422 19.1188 12.4219 29.5926 12.4219 42.5126C12.4219 55.4326 21.1422 65.9063 31.8994 65.9063Z" fill="white"/>
<path d="M10.9311 57.3563L8.74487 73.625H10.633C11.8255 73.625 12.223 71.9625 13.018 69.9438C14.0117 67.3313 16.3967 60.5625 16.3967 60.5625L10.9311 57.3563Z" fill="#428BC1"/>
<path d="M52.7683 57.3563L55.054 73.625H53.1658C51.9733 73.625 51.5758 71.9625 50.7808 69.9438C49.7871 67.3313 47.4021 60.5625 47.4021 60.5625L52.7683 57.3563Z" fill="#428BC1"/>
<path d="M13.2171 12.1124L19.0802 19.1187L15.9996 22.9187L10.1365 15.7937L13.2171 12.1124Z" fill="#428BC1"/>
<path d="M50.5819 12.1124L44.7188 19.1187L47.7994 22.9187L53.6625 15.7937L50.5819 12.1124Z" fill="#428BC1"/>
<path d="M5.66442 28.025L23.1544 6.76875C20.9682 4.0375 17.8875 2.375 14.4094 2.375C7.55255 2.375 1.98755 9.14375 1.98755 17.3375C1.98755 21.4937 3.3788 25.2938 5.66442 28.025Z" fill="#B0B8B8"/>
<path d="M40.2468 6.8875L57.9356 27.9062C60.2212 25.175 61.6124 21.4937 61.6124 17.3375C61.6124 9.14375 56.0475 2.375 49.0912 2.375C45.6131 2.49375 42.5325 4.15625 40.2468 6.8875Z" fill="#B0B8B8"/>
<path d="M20.4709 55.3376L30.7066 42.8688L31.8991 44.2938L21.6634 56.6438L20.4709 55.3376Z" fill="#ED4C5C"/>
<path d="M31.8998 46.9061C33.9305 46.9061 35.5766 44.9389 35.5766 42.5123C35.5766 40.0857 33.9305 38.1186 31.8998 38.1186C29.8691 38.1186 28.2229 40.0857 28.2229 42.5123C28.2229 44.9389 29.8691 46.9061 31.8998 46.9061Z" fill="#428BC1"/>
<path d="M30.0115 25.7687H33.6884V43.5812H30.0115V25.7687Z" fill="#428BC1"/>
<path d="M33.6885 40.2561H41.1416V44.6498H33.6885V40.2561Z" fill="#428BC1"/>
</svg>
