<svg width="60" height="52" viewBox="0 0 60 52" fill="none" xmlns="http://www.w3.org/2000/svg">
<path d="M0.987549 11.75H26.825L28.8125 16.5H2.97505L0.987549 11.75ZM3.63755 21.25H29.475L31.4625 26H5.62505L3.63755 21.25ZM46.7 46.5834C48.8995 46.5834 50.675 44.4617 50.675 41.8334C50.675 39.205 48.8995 37.0834 46.7 37.0834C44.5005 37.0834 42.725 39.205 42.725 41.8334C42.725 44.4617 44.5005 46.5834 46.7 46.5834ZM50.675 18.0834H44.05V26H55.869L50.675 18.0834ZM20.2 46.5834C22.3995 46.5834 24.175 44.4617 24.175 41.8334C24.175 39.205 22.3995 37.0834 20.2 37.0834C18.0005 37.0834 16.225 39.205 16.225 41.8334C16.225 44.4617 18.0005 46.5834 20.2 46.5834ZM52 13.3334L59.95 26V41.8334H54.65C54.65 47.09 51.099 51.3334 46.7 51.3334C42.301 51.3334 38.75 47.09 38.75 41.8334H28.15C28.15 47.09 24.5725 51.3334 20.2 51.3334C15.801 51.3334 12.25 47.09 12.25 41.8334H6.95005V30.75H12.25V35.5H14.264C15.7215 33.5684 17.8415 32.3334 20.2 32.3334C22.5585 32.3334 24.6785 33.5684 26.136 35.5H38.75V7.00002H6.95005C6.95005 3.48502 9.30855 0.666687 12.25 0.666687H44.05V13.3334H52Z" fill="#6C63FF"/>
</svg>
